<svg width="17" height="16" viewBox="0 0 17 16" fill="none" xmlns="http://www.w3.org/2000/svg">
<path d="M2.25 16C1.78587 16 1.34075 15.8156 1.01256 15.4874C0.684374 15.1592 0.5 14.7141 0.5 14.25V1.75C0.5 0.784 1.284 0 2.25 0H10.75C11.716 0 12.5 0.784 12.5 1.75V14.25C12.5 14.335 12.494 14.418 12.482 14.5H14.75C14.8163 14.5 14.8799 14.4737 14.9268 14.4268C14.9737 14.3799 15 14.3163 15 14.25V8.285C15 8.24387 14.9899 8.20338 14.9706 8.16709C14.9512 8.13081 14.9232 8.09987 14.889 8.077L13.834 7.374C13.7521 7.31937 13.6817 7.24913 13.6269 7.1673C13.5721 7.08547 13.5339 6.99365 13.5146 6.89708C13.4953 6.80051 13.4952 6.70107 13.5143 6.60446C13.5334 6.50785 13.5714 6.41594 13.626 6.334C13.6806 6.25206 13.7509 6.18167 13.8327 6.12687C13.9145 6.07207 14.0063 6.03392 14.1029 6.01461C14.1995 5.99529 14.2989 5.99519 14.3955 6.0143C14.4922 6.03342 14.5841 6.07137 14.666 6.126L15.721 6.829C16.208 7.154 16.5 7.7 16.5 8.285V14.25C16.5 14.7141 16.3156 15.1592 15.9874 15.4874C15.6592 15.8156 15.2141 16 14.75 16H11.25C11.1835 15.9999 11.1173 15.9912 11.053 15.974C10.954 15.991 10.853 16 10.75 16H7.75C7.55109 16 7.36032 15.921 7.21967 15.7803C7.07902 15.6397 7 15.4489 7 15.25V14H6V15.25C6 15.4489 5.92098 15.6397 5.78033 15.7803C5.63968 15.921 5.44891 16 5.25 16H2.25ZM2 14.25C2 14.388 2.112 14.5 2.25 14.5H4.5V13.25C4.5 13.0511 4.57902 12.8603 4.71967 12.7197C4.86032 12.579 5.05109 12.5 5.25 12.5H7.75C7.94891 12.5 8.13968 12.579 8.28033 12.7197C8.42098 12.8603 8.5 13.0511 8.5 13.25V14.5H10.75C10.8163 14.5 10.8799 14.4737 10.9268 14.4268C10.9737 14.3799 11 14.3163 11 14.25V1.75C11 1.6837 10.9737 1.62011 10.9268 1.57322C10.8799 1.52634 10.8163 1.5 10.75 1.5H2.25C2.1837 1.5 2.12011 1.52634 2.07322 1.57322C2.02634 1.62011 2 1.6837 2 1.75V14.25ZM4.25 6H4.75C4.94891 6 5.13968 6.07902 5.28033 6.21967C5.42098 6.36032 5.5 6.55109 5.5 6.75C5.5 6.94891 5.42098 7.13968 5.28033 7.28033C5.13968 7.42098 4.94891 7.5 4.75 7.5H4.25C4.05109 7.5 3.86032 7.42098 3.71967 7.28033C3.57902 7.13968 3.5 6.94891 3.5 6.75C3.5 6.55109 3.57902 6.36032 3.71967 6.21967C3.86032 6.07902 4.05109 6 4.25 6ZM3.5 3.75C3.5 3.55109 3.57902 3.36032 3.71967 3.21967C3.86032 3.07902 4.05109 3 4.25 3H4.75C4.94891 3 5.13968 3.07902 5.28033 3.21967C5.42098 3.36032 5.5 3.55109 5.5 3.75C5.5 3.94891 5.42098 4.13968 5.28033 4.28033C5.13968 4.42098 4.94891 4.5 4.75 4.5H4.25C4.05109 4.5 3.86032 4.42098 3.71967 4.28033C3.57902 4.13968 3.5 3.94891 3.5 3.75ZM7.5 6.75C7.5 6.55109 7.57902 6.36032 7.71967 6.21967C7.86032 6.07902 8.05109 6 8.25 6H8.75C8.94891 6 9.13968 6.07902 9.28033 6.21967C9.42098 6.36032 9.5 6.55109 9.5 6.75C9.5 6.94891 9.42098 7.13968 9.28033 7.28033C9.13968 7.42098 8.94891 7.5 8.75 7.5H8.25C8.05109 7.5 7.86032 7.42098 7.71967 7.28033C7.57902 7.13968 7.5 6.94891 7.5 6.75ZM8.25 3H8.75C8.94891 3 9.13968 3.07902 9.28033 3.21967C9.42098 3.36032 9.5 3.55109 9.5 3.75C9.5 3.94891 9.42098 4.13968 9.28033 4.28033C9.13968 4.42098 8.94891 4.5 8.75 4.5H8.25C8.05109 4.5 7.86032 4.42098 7.71967 4.28033C7.57902 4.13968 7.5 3.94891 7.5 3.75C7.5 3.55109 7.57902 3.36032 7.71967 3.21967C7.86032 3.07902 8.05109 3 8.25 3ZM3.5 9.75C3.5 9.55109 3.57902 9.36032 3.71967 9.21967C3.86032 9.07902 4.05109 9 4.25 9H4.75C4.94891 9 5.13968 9.07902 5.28033 9.21967C5.42098 9.36032 5.5 9.55109 5.5 9.75C5.5 9.94891 5.42098 10.1397 5.28033 10.2803C5.13968 10.421 4.94891 10.5 4.75 10.5H4.25C4.05109 10.5 3.86032 10.421 3.71967 10.2803C3.57902 10.1397 3.5 9.94891 3.5 9.75ZM8.25 9H8.75C8.94891 9 9.13968 9.07902 9.28033 9.21967C9.42098 9.36032 9.5 9.55109 9.5 9.75C9.5 9.94891 9.42098 10.1397 9.28033 10.2803C9.13968 10.421 8.94891 10.5 8.75 10.5H8.25C8.05109 10.5 7.86032 10.421 7.71967 10.2803C7.57902 10.1397 7.5 9.94891 7.5 9.75C7.5 9.55109 7.57902 9.36032 7.71967 9.21967C7.86032 9.07902 8.05109 9 8.25 9Z" fill="#7D8590"/>
</svg>
