<svg width="17" height="16" viewBox="0 0 17 16" fill="none" xmlns="http://www.w3.org/2000/svg">
<path d="M2.49999 5.5C2.49992 4.91988 2.64405 4.34883 2.91942 3.83822C3.19479 3.32762 3.59276 2.89347 4.07754 2.57482C4.56232 2.25617 5.11871 2.06302 5.69665 2.01274C6.2746 1.96246 6.85598 2.05663 7.3885 2.28678C7.92102 2.51693 8.38799 2.87583 8.74739 3.33121C9.1068 3.7866 9.34738 4.32418 9.44749 4.8956C9.54759 5.46703 9.5041 6.05437 9.3209 6.60482C9.13771 7.15526 8.82056 7.65153 8.39799 8.049C9.1948 8.43566 9.88662 9.00876 10.4148 9.71971C10.9429 10.4307 11.2919 11.2585 11.432 12.133C11.4474 12.2303 11.4435 12.3297 11.4206 12.4255C11.3976 12.5213 11.3559 12.6117 11.298 12.6914C11.2401 12.7711 11.1671 12.8386 11.0831 12.8901C10.9991 12.9416 10.9058 12.9761 10.8085 12.9915C10.7112 13.0069 10.6118 13.003 10.516 12.9801C10.4202 12.9571 10.3298 12.9155 10.2501 12.8576C10.1704 12.7997 10.1029 12.7266 10.0514 12.6426C9.99987 12.5586 9.96542 12.4653 9.94999 12.368C9.8 11.4283 9.31992 10.5729 8.59596 9.9553C7.872 9.33773 6.95158 8.99848 5.99999 8.99848C5.0484 8.99848 4.12799 9.33773 3.40402 9.9553C2.68006 10.5729 2.19998 11.4283 2.04999 12.368C2.0345 12.4653 1.99998 12.5586 1.94843 12.6426C1.89687 12.7266 1.82928 12.7996 1.74952 12.8574C1.66975 12.9153 1.57937 12.9568 1.48354 12.9798C1.38771 13.0027 1.2883 13.0065 1.19099 12.991C1.09368 12.9755 1.00038 12.941 0.916405 12.8894C0.832433 12.8379 0.759438 12.7703 0.701587 12.6905C0.643736 12.6108 0.602162 12.5204 0.57924 12.4246C0.556318 12.3287 0.552495 12.2293 0.567991 12.132C0.708326 11.2578 1.05737 10.4304 1.58552 9.71977C2.11368 9.00918 2.80538 8.4364 3.60199 8.05C3.25366 7.72293 2.97614 7.32788 2.78659 6.88927C2.59704 6.45066 2.4995 5.97782 2.49999 5.5ZM11.5 4C12.081 4.00041 12.6494 4.16947 13.1362 4.48665C13.623 4.80384 14.0072 5.25552 14.2423 5.78685C14.4774 6.31819 14.5532 6.90634 14.4604 7.47991C14.3677 8.05347 14.1105 8.58779 13.72 9.018C14.3287 9.32019 14.8695 9.74305 15.3096 10.2608C15.7497 10.7787 16.0799 11.3806 16.28 12.03C16.3196 12.1561 16.3252 12.2904 16.2962 12.4193C16.2671 12.5482 16.2045 12.6672 16.1146 12.7641C16.0247 12.8609 15.9108 12.9323 15.7844 12.971C15.658 13.0096 15.5237 13.0141 15.395 12.984C15.2664 12.9541 15.148 12.8908 15.0516 12.8006C14.9553 12.7103 14.8843 12.5963 14.846 12.47C14.6668 11.8902 14.3402 11.3669 13.8981 10.9511C13.456 10.5353 12.9137 10.2414 12.324 10.098C12.1602 10.0585 12.0145 9.96496 11.9104 9.83253C11.8063 9.7001 11.7498 9.53647 11.75 9.368V9.016C11.7499 8.87637 11.7888 8.73949 11.8623 8.62076C11.9358 8.50204 12.041 8.40619 12.166 8.344C12.4692 8.19376 12.7126 7.94543 12.8568 7.63935C13.001 7.33327 13.0375 6.98743 12.9604 6.65799C12.8833 6.32855 12.697 6.03487 12.4319 5.82465C12.1667 5.61443 11.8383 5.50002 11.5 5.5C11.3011 5.5 11.1103 5.42099 10.9697 5.28033C10.829 5.13968 10.75 4.94892 10.75 4.75C10.75 4.55109 10.829 4.36033 10.9697 4.21967C11.1103 4.07902 11.3011 4 11.5 4ZM5.99999 3.5C5.73365 3.49398 5.46879 3.54123 5.22097 3.63898C4.97314 3.73672 4.74734 3.88299 4.55682 4.06921C4.3663 4.25542 4.2149 4.47782 4.11152 4.72335C4.00813 4.96888 3.95484 5.23259 3.95478 5.49899C3.95471 5.7654 4.00787 6.02914 4.11113 6.27472C4.21439 6.5203 4.36568 6.74277 4.5561 6.92908C4.74653 7.11539 4.97226 7.26177 5.22004 7.35964C5.46782 7.45751 5.73265 7.50489 5.99899 7.499C6.52155 7.48745 7.01883 7.27178 7.38436 6.89817C7.7499 6.52455 7.95465 6.02268 7.95478 5.49999C7.95491 4.9773 7.75041 4.47533 7.38506 4.10154C7.01971 3.72774 6.52255 3.51182 5.99999 3.5Z" fill="#7D8590"/>
</svg>
