<svg width="15" height="14" viewBox="0 0 15 14" fill="none" xmlns="http://www.w3.org/2000/svg">
<path id="Vector" d="M7.275 2.275L8.52499 1.025C8.85002 0.699974 9.23587 0.442153 9.66053 0.266252C10.0852 0.0903518 10.5403 -0.000183101 11 -0.000183105C11.4596 -0.00018311 11.9148 0.0903517 12.3395 0.266252C12.7641 0.442153 13.15 0.699974 13.475 1.025C13.8 1.35002 14.0578 1.73587 14.2337 2.16054C14.4096 2.5852 14.5002 3.04035 14.5002 3.5C14.5002 3.95965 14.4096 4.41479 14.2337 4.83946C14.0578 5.26412 13.8 5.64997 13.475 5.975L10.975 8.475C10.65 8.80004 10.2641 9.05788 9.83947 9.23379C9.41481 9.40971 8.95965 9.50025 8.5 9.50025C8.04034 9.50025 7.58518 9.40971 7.16052 9.23379C6.73586 9.05788 6.35001 8.80004 6.025 8.475C5.89259 8.33273 5.82048 8.14468 5.82384 7.95037C5.8272 7.75605 5.90575 7.5706 6.043 7.433C6.1806 7.29575 6.36605 7.2172 6.56036 7.21384C6.75468 7.21048 6.94273 7.28259 7.085 7.415C7.27061 7.60119 7.49114 7.74892 7.73396 7.84971C7.97677 7.95051 8.23709 8.0024 8.5 8.0024C8.7629 8.0024 9.02322 7.95051 9.26604 7.84971C9.50885 7.74892 9.72938 7.60119 9.915 7.415L12.415 4.915C12.772 4.53605 12.9674 4.03292 12.9596 3.51234C12.9519 2.99176 12.7416 2.49467 12.3735 2.12652C12.0053 1.75837 11.5082 1.54812 10.9877 1.54037C10.4671 1.53262 9.96394 1.72797 9.585 2.085L8.335 3.335C8.19273 3.4674 8.00468 3.53951 7.81036 3.53615C7.61605 3.53279 7.4306 3.45424 7.293 3.317C7.15575 3.17939 7.0772 2.99394 7.07384 2.79963C7.07048 2.60531 7.14259 2.41726 7.275 2.275ZM2.585 11.915C2.77061 12.1012 2.99114 12.2489 3.23396 12.3497C3.47677 12.4505 3.73709 12.5024 4 12.5024C4.2629 12.5024 4.52322 12.4505 4.76604 12.3497C5.00885 12.2489 5.22938 12.1012 5.415 11.915L6.665 10.665C6.80726 10.5326 6.99531 10.4605 7.18963 10.4638C7.38394 10.4672 7.56939 10.5458 7.707 10.683C7.84424 10.8206 7.92279 11.006 7.92615 11.2004C7.92951 11.3947 7.8574 11.5827 7.725 11.725L6.475 12.975C6.14997 13.3 5.76412 13.5578 5.33946 13.7337C4.91479 13.9096 4.45965 14.0002 4 14.0002C3.07169 14.0002 2.18141 13.6314 1.525 12.975C0.868585 12.3186 0.499817 11.4283 0.499817 10.5C0.499817 9.57169 0.868585 8.68141 1.525 8.02499L4.025 5.525C4.35001 5.19995 4.73586 4.94211 5.16052 4.7662C5.58518 4.59029 6.04034 4.49974 6.5 4.49974C6.95965 4.49974 7.41481 4.59029 7.83947 4.7662C8.26413 4.94211 8.64999 5.19995 8.975 5.525C9.1074 5.66726 9.17951 5.85531 9.17615 6.04963C9.17279 6.24394 9.09424 6.42939 8.957 6.567C8.81939 6.70424 8.63394 6.78279 8.43963 6.78615C8.24531 6.78951 8.05726 6.7174 7.915 6.585C7.72938 6.3988 7.50885 6.25107 7.26604 6.15028C7.02322 6.04948 6.7629 5.99759 6.5 5.99759C6.23709 5.99759 5.97677 6.04948 5.73396 6.15028C5.49114 6.25107 5.27061 6.3988 5.085 6.585L2.585 9.085C2.3988 9.27061 2.25107 9.49114 2.15028 9.73396C2.04948 9.97677 1.99759 10.2371 1.99759 10.5C1.99759 10.7629 2.04948 11.0232 2.15028 11.266C2.25107 11.5088 2.3988 11.7294 2.585 11.915Z" fill="#7D8590"/>
</svg>
