<svg width="13" height="16" viewBox="0 0 13 16" fill="none" xmlns="http://www.w3.org/2000/svg">
<path d="M11.096 11.596L7.56102 15.132C7.42172 15.2714 7.25632 15.382 7.07427 15.4574C6.89221 15.5329 6.69708 15.5717 6.50002 15.5717C6.30295 15.5717 6.10782 15.5329 5.92577 15.4574C5.74372 15.382 5.57832 15.2714 5.43902 15.132L1.90402 11.596C1.3004 10.9925 0.821566 10.2759 0.494863 9.48733C0.168161 8.69872 -1.45899e-05 7.85349 -6.10255e-05 6.99988C-0.000107461 6.14628 0.167976 5.30103 0.494593 4.51238C0.821209 3.72374 1.29996 3.00715 1.90352 2.40353C2.50707 1.79991 3.22361 1.32108 4.01222 0.994375C4.80083 0.667673 5.64606 0.499497 6.49966 0.499451C7.35327 0.499404 8.19852 0.667488 8.98716 0.994104C9.77581 1.32072 10.4924 1.79947 11.096 2.40303C11.6997 3.00662 12.1786 3.72322 12.5053 4.51189C12.832 5.30056 13.0001 6.14586 13.0001 6.99953C13.0001 7.85319 12.832 8.6985 12.5053 9.48717C12.1786 10.2758 11.6997 10.9924 11.096 11.596ZM10.036 3.46403C9.09821 2.52622 7.82628 1.99837 6.50002 1.99837C5.17376 1.99837 3.90182 2.52522 2.96402 3.46303C2.02621 4.40084 1.49936 5.67277 1.49936 6.99903C1.49936 8.32529 2.02621 9.59722 2.96402 10.535L6.50002 14.07L10.036 10.536C10.5005 10.0717 10.8689 9.52047 11.1202 8.91375C11.3716 8.30704 11.501 7.65675 11.501 7.00003C11.501 6.34331 11.3716 5.69302 11.1202 5.08631C10.8689 4.47959 10.5005 3.92834 10.036 3.46403ZM6.50002 9.00003C6.23368 9.00605 5.96882 8.9588 5.72099 8.86106C5.47317 8.76331 5.24736 8.61704 5.05685 8.43083C4.86633 8.24461 4.71493 8.02221 4.61154 7.77669C4.50816 7.53116 4.45487 7.26745 4.4548 7.00104C4.45474 6.73463 4.50789 6.4709 4.61116 6.22532C4.71442 5.97974 4.8657 5.75726 5.05613 5.57096C5.24656 5.38465 5.47228 5.23826 5.72006 5.14039C5.96784 5.04252 6.23268 4.99514 6.49902 5.00103C7.02158 5.01259 7.51885 5.22825 7.88439 5.60187C8.24992 5.97548 8.45467 6.47735 8.4548 7.00004C8.45493 7.52273 8.25044 8.0247 7.88509 8.3985C7.51974 8.7723 7.02257 8.98821 6.50002 9.00003Z" fill="#7D8590"/>
</svg>
