<svg width="17" height="14" viewBox="0 0 17 14" fill="none" xmlns="http://www.w3.org/2000/svg">
<path id="Vector" d="M16.5 2.03619C15.902 2.30283 15.2668 2.47643 14.6163 2.551C15.3027 2.14258 15.8164 1.49775 16.0612 0.737474C15.4151 1.11889 14.7089 1.38791 13.9728 1.53309C13.5224 1.05342 12.9383 0.720176 12.2963 0.576599C11.6542 0.433021 10.9838 0.485739 10.3721 0.727911C9.76032 0.970083 9.2355 1.39053 8.86568 1.93469C8.49587 2.47885 8.29815 3.12159 8.29817 3.77952C8.29743 4.03173 8.32689 4.28313 8.38592 4.52833C7.08068 4.46219 5.80383 4.1229 4.63793 3.53238C3.47202 2.94187 2.44299 2.11329 1.61737 1.10018C1.19735 1.82288 1.06881 2.67857 1.25796 3.49277C1.44711 4.30697 1.93969 5.01837 2.63528 5.4819C2.11448 5.46538 1.6051 5.325 1.14936 5.07239V5.11334C1.14935 5.8711 1.4115 6.60552 1.89134 7.19199C2.37118 7.77846 3.03915 8.18085 3.7819 8.33089C3.49986 8.40862 3.20864 8.44797 2.91609 8.44789C2.7081 8.4461 2.50064 8.42653 2.29598 8.38939C2.50583 9.04149 2.91399 9.61182 3.46352 10.0208C4.01305 10.4298 4.67654 10.6571 5.36143 10.6709C4.1977 11.5821 2.76191 12.0765 1.28391 12.075C1.02194 12.0741 0.760215 12.0585 0.5 12.0282C2.00075 12.9923 3.74731 13.5041 5.53108 13.5024C11.5684 13.5024 14.8678 8.50055 14.8678 4.16563C14.8678 4.02523 14.862 3.87897 14.8561 3.73857C15.501 3.27341 16.0577 2.69692 16.5 2.03619Z" fill="#7D8590"/>
</svg>
