<svg width="33" height="32" viewBox="0 0 33 32" fill="none" xmlns="http://www.w3.org/2000/svg">
<path id="Vector" d="M16.2365 0.25708C25.0765 0.25708 32.2365 7.41708 32.2365 16.2571C32.2356 19.6095 31.1835 22.8772 29.2281 25.6003C27.2728 28.3234 24.5127 30.3648 21.3365 31.4371C20.5365 31.5971 20.2365 31.0971 20.2365 30.6771C20.2365 30.1371 20.2565 28.4171 20.2565 26.2771C20.2565 24.7771 19.7565 23.8171 19.1765 23.3171C22.7365 22.9171 26.4765 21.5571 26.4765 15.4171C26.4765 13.6571 25.8565 12.2371 24.8365 11.1171C24.9965 10.7171 25.5565 9.07708 24.6765 6.87708C24.6765 6.87708 23.3365 6.43708 20.2765 8.51708C18.9965 8.15708 17.6365 7.97708 16.2765 7.97708C14.9165 7.97708 13.5565 8.15708 12.2765 8.51708C9.21645 6.45708 7.87645 6.87708 7.87645 6.87708C6.99645 9.07708 7.55645 10.7171 7.71645 11.1171C6.69645 12.2371 6.07645 13.6771 6.07645 15.4171C6.07645 21.5371 9.79645 22.9171 13.3565 23.3171C12.8965 23.7171 12.4765 24.4171 12.3365 25.4571C11.4165 25.8771 9.11645 26.5571 7.67645 24.1371C7.37645 23.6571 6.47645 22.4771 5.21645 22.4971C3.87645 22.5171 4.67645 23.2571 5.23645 23.5571C5.91645 23.9371 6.69645 25.3571 6.87645 25.8171C7.19645 26.7171 8.23645 28.4371 12.2565 27.6971C12.2565 29.0371 12.2765 30.2971 12.2765 30.6771C12.2765 31.0971 11.9765 31.5771 11.1765 31.4371C7.98973 30.3764 5.21792 28.3391 3.25423 25.6144C1.29054 22.8896 0.234689 19.6157 0.236452 16.2571C0.236452 7.41708 7.39645 0.25708 16.2365 0.25708Z" fill="white"/>
</svg>
